<?xml version="1.0" encoding="utf-8"?>
<!-- Generator: Adobe Illustrator 16.0.0, SVG Export Plug-In . SVG Version: 6.00 Build 0)  -->
<!DOCTYPE svg PUBLIC "-//W3C//DTD SVG 1.1//EN" "http://www.w3.org/Graphics/SVG/1.1/DTD/svg11.dtd">
<svg version="1.1" id="Layer_1" xmlns="http://www.w3.org/2000/svg" xmlns:xlink="http://www.w3.org/1999/xlink" x="0px" y="0px"
	 width="100px" height="100px" viewBox="0 0 100 100" style="enable-background:new 0 0 100 100;" xml:space="preserve">
<style type="text/css">
<![CDATA[
	.st0{fill:none;stroke:#FFFFFF;stroke-linecap:round;stroke-linejoin:round;stroke-miterlimit:10;}
]]>
</style>
<g>
	<path class="st0" d="M74.027,55.006L48.935,79.998L74.027,55.006z"/>
	<path class="st0" d="M23.828,55.006L48.92,79.998L23.828,55.006z"/>
</g>
<g>
	<path class="st0" d="M74.029,50.007L48.937,74.999L74.029,50.007z"/>
	<path class="st0" d="M23.829,50.007l25.093,24.992L23.829,50.007z"/>
</g>
<g>
	<path class="st0" d="M74.03,45.009L48.938,70.001L74.03,45.009z"/>
	<path class="st0" d="M23.831,45.009l25.093,24.992L23.831,45.009z"/>
</g>
<g>
	<path class="st0" d="M74.032,40.011L48.939,65.002L74.032,40.011z"/>
	<path class="st0" d="M23.832,40.011l25.093,24.991L23.832,40.011z"/>
</g>
<g>
	<path class="st0" d="M74.033,35.012L48.941,60.004L74.033,35.012z"/>
	<path class="st0" d="M23.834,35.012l25.093,24.992L23.834,35.012z"/>
</g>
<g>
	<path class="st0" d="M74.035,30.014L48.943,55.006L74.035,30.014z"/>
	<path class="st0" d="M23.835,30.014l25.093,24.992L23.835,30.014z"/>
</g>
</svg>
