<?xml version="1.0" encoding="utf-8"?>
<!-- Generator: Adobe Illustrator 16.0.0, SVG Export Plug-In . SVG Version: 6.00 Build 0)  -->
<!DOCTYPE svg PUBLIC "-//W3C//DTD SVG 1.1//EN" "http://www.w3.org/Graphics/SVG/1.1/DTD/svg11.dtd">
<svg version="1.1" id="Layer_1" xmlns="http://www.w3.org/2000/svg" xmlns:xlink="http://www.w3.org/1999/xlink" x="0px" y="0px"
	 width="100px" height="100px" viewBox="0 0 100 100" style="enable-background:new 0 0 100 100;" xml:space="preserve">
<style type="text/css">
<![CDATA[
	.st0{fill:#FFFFFF;}
]]>
</style>
<path class="st0" d="M48.935,80.998c-0.257,0-0.513-0.098-0.708-0.294c-0.194-0.195-0.291-0.45-0.292-0.705
	c0-0.257,0.098-0.514,0.294-0.71l25.092-24.992c0.392-0.391,1.023-0.388,1.415,0.003c0.193,0.195,0.291,0.45,0.291,0.705
	c0,0.257-0.098,0.514-0.294,0.71L49.641,80.707C49.446,80.901,49.19,80.998,48.935,80.998z"/>
<path class="st0" d="M48.92,80.998c-0.255,0-0.511-0.097-0.706-0.291L23.122,55.715c-0.197-0.196-0.295-0.453-0.294-0.71
	c0-0.255,0.097-0.51,0.292-0.705c0.389-0.391,1.023-0.393,1.414-0.003l25.093,24.992c0.197,0.196,0.295,0.453,0.294,0.71
	c0,0.255-0.097,0.51-0.292,0.705C49.434,80.899,49.177,80.998,48.92,80.998z"/>
<path class="st0" d="M48.943,56.006c-0.257,0-0.513-0.098-0.708-0.294c-0.194-0.195-0.291-0.45-0.292-0.705
	c0-0.257,0.098-0.514,0.294-0.71l25.092-24.992c0.392-0.391,1.023-0.389,1.415,0.003c0.193,0.195,0.291,0.45,0.291,0.705
	c0,0.257-0.098,0.514-0.294,0.709L49.648,55.715C49.454,55.909,49.198,56.006,48.943,56.006z"/>
<path class="st0" d="M48.928,56.006c-0.255,0-0.511-0.097-0.706-0.291L23.13,30.722c-0.197-0.196-0.295-0.453-0.294-0.709
	c0-0.255,0.097-0.51,0.292-0.705c0.389-0.393,1.023-0.393,1.414-0.003l25.093,24.992c0.197,0.196,0.295,0.453,0.294,0.71
	c0,0.255-0.097,0.51-0.292,0.705C49.441,55.907,49.185,56.006,48.928,56.006z"/>
</svg>
